<?xml version="1.0" encoding="UTF-8"?>
<!DOCTYPE svg PUBLIC "-//W3C//DTD SVG 1.1//EN" "http://www.w3.org/Graphics/SVG/1.1/DTD/svg11.dtd">
<svg xmlns="http://www.w3.org/2000/svg" version="1.1" width="338px" height="163px" style="shape-rendering:geometricPrecision; text-rendering:geometricPrecision; image-rendering:optimizeQuality; fill-rule:evenodd; clip-rule:evenodd" xmlns:xlink="http://www.w3.org/1999/xlink">
<g><path style="opacity:1" fill="#fcfcfc" d="M -0.5,-0.5 C 112.167,-0.5 224.833,-0.5 337.5,-0.5C 337.5,53.8333 337.5,108.167 337.5,162.5C 224.833,162.5 112.167,162.5 -0.5,162.5C -0.5,108.167 -0.5,53.8333 -0.5,-0.5 Z"/></g>
<g><path style="opacity:1" fill="#171717" d="M 172.5,22.5 C 172.5,43.5 172.5,64.5 172.5,85.5C 171.167,85.5 169.833,85.5 168.5,85.5C 167.503,64.6733 167.169,43.6733 167.5,22.5C 169.167,22.5 170.833,22.5 172.5,22.5 Z"/></g>
<g><path style="opacity:1" fill="#414141" d="M 172.5,22.5 C 173.663,43.6627 173.829,64.996 173,86.5C 171.085,87.9156 169.585,87.5822 168.5,85.5C 169.833,85.5 171.167,85.5 172.5,85.5C 172.5,64.5 172.5,43.5 172.5,22.5 Z"/></g>
<g><path style="opacity:1" fill="#868686" d="M 205.5,36.5 C 205.34,38.153 204.674,39.4863 203.5,40.5C 203.229,38.6203 203.896,37.287 205.5,36.5 Z"/></g>
<g><path style="opacity:1" fill="#171717" d="M 202.5,60.5 C 200.992,64.8409 199.325,69.1743 197.5,73.5C 197.167,74.8333 196.833,76.1667 196.5,77.5C 194.6,80.5178 193.267,83.8512 192.5,87.5C 192.516,89.4841 191.516,90.4841 189.5,90.5C 187.734,90.5658 186.734,89.7324 186.5,88C 191.936,72.0912 197.603,56.2579 203.5,40.5C 204.674,39.4863 205.34,38.153 205.5,36.5C 206.601,35.4017 207.934,35.235 209.5,36C 210.059,36.7247 210.392,37.5581 210.5,38.5C 207.244,45.6002 204.577,52.9336 202.5,60.5 Z"/></g>
<g><path style="opacity:1" fill="#9e9e9e" d="M 250.5,50.5 C 249.92,52.7488 248.587,54.4154 246.5,55.5C 247.08,53.2512 248.413,51.5846 250.5,50.5 Z"/></g>
<g><path style="opacity:1" fill="#161616" d="M 136.5,99.5 C 134.053,99.385 132.053,98.385 130.5,96.5C 122.178,86.1794 113.511,76.1794 104.5,66.5C 103.92,64.2512 102.587,62.5846 100.5,61.5C 96.8788,56.7071 93.0455,52.0404 89,47.5C 88.51,46.2068 88.3433,44.8734 88.5,43.5C 90.4672,43.2606 92.3005,43.5939 94,44.5C 107.959,61.4614 122.293,78.1281 137,94.5C 137.78,96.3869 137.613,98.0536 136.5,99.5 Z"/></g>
<g><path style="opacity:1" fill="#171717" d="M 153.5,89.5 C 152.127,89.6567 150.793,89.49 149.5,89C 148.578,86.706 147.578,84.5394 146.5,82.5C 141.901,68.371 136.901,54.371 131.5,40.5C 132.096,37.7536 133.763,36.9202 136.5,38C 141.066,52.0266 146.232,65.8599 152,79.5C 152.826,82.7928 153.326,86.1262 153.5,89.5 Z"/></g>
<g><path style="opacity:1" fill="#9a9a9a" d="M 244.5,57.5 C 243.92,59.7488 242.587,61.4154 240.5,62.5C 241.08,60.2512 242.413,58.5846 244.5,57.5 Z"/></g>
<g><path style="opacity:1" fill="#a5a5a5" d="M 100.5,61.5 C 102.587,62.5846 103.92,64.2512 104.5,66.5C 102.413,65.4154 101.08,63.7488 100.5,61.5 Z"/></g>
<g><path style="opacity:1" fill="#171717" d="M 250.5,50.5 C 248.413,51.5846 247.08,53.2512 246.5,55.5C 245.5,55.8333 244.833,56.5 244.5,57.5C 242.413,58.5846 241.08,60.2512 240.5,62.5C 232.155,71.5137 224.155,80.8471 216.5,90.5C 214.413,91.5846 213.08,93.2512 212.5,95.5C 210.494,97.1733 208.494,98.84 206.5,100.5C 204.5,100.5 203.5,99.5 203.5,97.5C 206.478,93.1901 209.811,89.1901 213.5,85.5C 214.906,85.0269 215.573,84.0269 215.5,82.5C 226.601,69.8313 237.601,56.9979 248.5,44C 250.925,43.0141 252.591,43.6807 253.5,46C 252.685,47.6434 251.685,49.1434 250.5,50.5 Z"/></g>
<g><path style="opacity:1" fill="#c6c6c6" d="M 202.5,60.5 C 201.864,63.1062 201.864,65.6062 202.5,68C 200.406,69.4912 198.739,71.3245 197.5,73.5C 199.325,69.1743 200.992,64.8409 202.5,60.5 Z"/></g>
<g><path style="opacity:1" fill="#a9a9a9" d="M 196.5,77.5 C 196.23,81.3576 194.897,84.691 192.5,87.5C 193.267,83.8512 194.6,80.5178 196.5,77.5 Z"/></g>
<g><path style="opacity:1" fill="#6a6a6a" d="M 215.5,82.5 C 215.573,84.0269 214.906,85.0269 213.5,85.5C 213.427,83.9731 214.094,82.9731 215.5,82.5 Z"/></g>
<g><path style="opacity:1" fill="#7a7a7a" d="M 262.5,84.5 C 262.027,85.9063 261.027,86.573 259.5,86.5C 259.973,85.0937 260.973,84.427 262.5,84.5 Z"/></g>
<g><path style="opacity:1" fill="#171717" d="M 259.5,86.5 C 261.027,86.573 262.027,85.9063 262.5,84.5C 265.816,82.8418 269.15,81.1751 272.5,79.5C 275.427,80.1883 276.094,81.855 274.5,84.5C 256.373,94.1325 238.373,103.966 220.5,114C 219.207,114.49 217.873,114.657 216.5,114.5C 216.261,112.533 216.594,110.699 217.5,109C 231.41,101.213 245.41,93.7134 259.5,86.5 Z"/></g>
<g><path style="opacity:1" fill="#a1a1a1" d="M 146.5,82.5 C 147.578,84.5394 148.578,86.706 149.5,89C 150.793,89.49 152.127,89.6567 153.5,89.5C 152.054,90.6129 150.387,90.7796 148.5,90C 147.133,87.6985 146.466,85.1985 146.5,82.5 Z"/></g>
<g><path style="opacity:1" fill="#171717" d="M 121.5,107.5 C 123.85,109.213 124.85,111.547 124.5,114.5C 123.5,114.5 122.5,114.5 121.5,114.5C 104.243,103.249 87.2432,91.5827 70.5,79.5C 69.5481,77.9547 69.2148,76.288 69.5,74.5C 72.7449,74.8801 75.7449,76.0468 78.5,78C 92.5436,88.3472 106.877,98.1805 121.5,107.5 Z"/></g>
<g><path style="opacity:1" fill="#a2a2a2" d="M 216.5,90.5 C 215.92,92.7488 214.587,94.4154 212.5,95.5C 213.08,93.2512 214.413,91.5846 216.5,90.5 Z"/></g>
<g><path style="opacity:1" fill="#454545" d="M 178.5,96.5 C 171.465,96.3257 164.465,96.6591 157.5,97.5C 161.203,95.945 165.203,95.2783 169.5,95.5C 172.686,95.502 175.686,95.8353 178.5,96.5 Z"/></g>
<g><path style="opacity:1" fill="#a1a1a1" d="M 130.5,96.5 C 132.053,98.385 134.053,99.385 136.5,99.5C 133.336,101.191 131.336,100.191 130.5,96.5 Z"/></g>
<g><path style="opacity:1" fill="#6b6b6b" d="M 152.5,98.5 C 152.027,99.9063 151.027,100.573 149.5,100.5C 149.973,99.0937 150.973,98.427 152.5,98.5 Z"/></g>
<g><path style="opacity:1" fill="#9f9f9f" d="M 121.5,107.5 C 123.017,107.511 124.184,108.177 125,109.5C 125.495,111.473 125.662,113.473 125.5,115.5C 123.901,115.768 122.568,115.434 121.5,114.5C 122.5,114.5 123.5,114.5 124.5,114.5C 124.85,111.547 123.85,109.213 121.5,107.5 Z"/></g>
<g><path style="opacity:1" fill="#141414" d="M 178.5,96.5 C 198.37,100.036 210.37,111.703 214.5,131.5C 214.5,135.833 214.5,140.167 214.5,144.5C 213.522,144.189 212.855,143.522 212.5,142.5C 212.35,139.728 212.683,136.894 213.5,134C 213.245,132.674 212.578,131.674 211.5,131C 212.731,129.817 212.731,128.651 211.5,127.5C 210.146,130.067 210.48,132.401 212.5,134.5C 212.154,135.696 211.654,135.696 211,134.5C 210.821,138.025 210.321,141.359 209.5,144.5C 161.577,145.762 113.577,146.429 65.5,146.5C 65.5,145.833 65.5,145.167 65.5,144.5C 85.8333,144.5 106.167,144.5 126.5,144.5C 126.413,139.463 126.746,134.463 127.5,129.5C 129.729,119.422 134.729,110.922 142.5,104C 144.577,102.295 146.91,101.128 149.5,100.5C 151.027,100.573 152.027,99.9063 152.5,98.5C 154.117,97.962 155.784,97.6287 157.5,97.5C 164.465,96.6591 171.465,96.3257 178.5,96.5 Z"/></g>
<g><path style="opacity:1" fill="#fcfcfc" d="M 177.5,101.5 C 188.381,103.093 196.714,108.426 202.5,117.5C 202.89,120.839 203.39,124.173 204,127.5C 204.414,127.043 204.914,126.709 205.5,126.5C 206.521,127.901 207.521,129.235 208.5,130.5C 209.295,134.785 209.628,139.119 209.5,143.5C 183.833,143.5 158.167,143.5 132.5,143.5C 132.5,140.167 132.5,136.833 132.5,133.5C 134.719,117.28 143.719,106.946 159.5,102.5C 165.464,101.693 171.464,101.36 177.5,101.5 Z"/></g>
<g><path style="opacity:1" fill="#757575" d="M 177.5,101.5 C 171.464,101.36 165.464,101.693 159.5,102.5C 162.695,100.97 166.195,100.304 170,100.5C 172.69,100.503 175.19,100.836 177.5,101.5 Z"/></g>
<g><path style="opacity:1" fill="#4b4b4b" d="M 296.5,116.5 C 292.19,117.08 287.857,117.414 283.5,117.5C 287.773,115.744 292.106,115.41 296.5,116.5 Z"/></g>
<g><path style="opacity:1" fill="#2d2d2d" d="M 61.5,118.5 C 59.0799,118.292 56.7466,118.626 54.5,119.5C 51.8024,116.404 48.469,115.737 44.5,117.5C 44.2907,118.086 43.9574,118.586 43.5,119C 46.5399,119.32 49.5399,119.32 52.5,119C 52.1667,119.333 51.8333,119.667 51.5,120C 53.0664,120.608 54.3998,121.442 55.5,122.5C 50.853,121.704 46.1863,121.037 41.5,120.5C 41.3398,118.801 41.5065,117.134 42,115.5C 42.8926,114.919 43.8926,114.585 45,114.5C 50.8051,115.188 56.3051,116.522 61.5,118.5 Z"/></g>
<g><path style="opacity:1" fill="#adadad" d="M 65.5,118.5 C 68.1873,118.336 70.854,118.503 73.5,119C 74.4158,119.278 75.0825,119.778 75.5,120.5C 71.9601,120.247 68.6267,119.581 65.5,118.5 Z"/></g>
<g><path style="opacity:1" fill="#151515" d="M 296.5,116.5 C 297.782,117.708 297.782,119.042 296.5,120.5C 293.601,121.642 290.601,122.308 287.5,122.5C 278.236,123.431 269.236,125.097 260.5,127.5C 260.167,127.5 259.833,127.5 259.5,127.5C 254.55,127.77 249.883,128.77 245.5,130.5C 238.776,131.065 232.109,132.065 225.5,133.5C 222.915,132.927 221.915,131.261 222.5,128.5C 242.804,124.727 263.137,121.06 283.5,117.5C 287.857,117.414 292.19,117.08 296.5,116.5 Z"/></g>
<g><path style="opacity:1" fill="#171717" d="M 61.5,118.5 C 62.8333,118.5 64.1667,118.5 65.5,118.5C 68.6267,119.581 71.9601,120.247 75.5,120.5C 77.5,120.833 79.5,121.167 81.5,121.5C 88.5934,123.462 95.9267,124.795 103.5,125.5C 108.41,126.819 113.41,127.819 118.5,128.5C 119.176,132.49 117.51,134.157 113.5,133.5C 94.1533,129.831 74.82,126.164 55.5,122.5C 54.3998,121.442 53.0664,120.608 51.5,120C 51.8333,119.667 52.1667,119.333 52.5,119C 49.5399,119.32 46.5399,119.32 43.5,119C 43.9574,118.586 44.2907,118.086 44.5,117.5C 48.469,115.737 51.8024,116.404 54.5,119.5C 56.7466,118.626 59.0799,118.292 61.5,118.5 Z"/></g>
<g><path style="opacity:1" fill="#c9c9c9" d="M 81.5,121.5 C 86.4231,122.064 91.2564,122.064 96,121.5C 98.5138,123.004 101.014,124.338 103.5,125.5C 95.9267,124.795 88.5934,123.462 81.5,121.5 Z"/></g>
<g><path style="opacity:1" fill="#cfcfcf" d="M 202.5,117.5 C 205.82,121.144 207.82,125.478 208.5,130.5C 207.521,129.235 206.521,127.901 205.5,126.5C 204.914,126.709 204.414,127.043 204,127.5C 203.39,124.173 202.89,120.839 202.5,117.5 Z"/></g>
<g><path style="opacity:1" fill="#bababa" d="M 287.5,122.5 C 286.152,123.186 284.985,124.186 284,125.5C 283.107,124.919 282.107,124.585 281,124.5C 274.236,126.067 267.402,127.067 260.5,127.5C 269.236,125.097 278.236,123.431 287.5,122.5 Z"/></g>
<g><path style="opacity:1" fill="#040404" d="M 214.5,144.5 C 214.833,144.5 215.167,144.5 215.5,144.5C 236.66,145.497 257.993,145.831 279.5,145.5C 279.5,146.5 279.5,147.5 279.5,148.5C 208.096,148.83 136.762,148.497 65.5,147.5C 65.5,147.167 65.5,146.833 65.5,146.5C 113.577,146.429 161.577,145.762 209.5,144.5C 210.321,141.359 210.821,138.025 211,134.5C 211.654,135.696 212.154,135.696 212.5,134.5C 210.48,132.401 210.146,130.067 211.5,127.5C 212.731,128.651 212.731,129.817 211.5,131C 212.578,131.674 213.245,132.674 213.5,134C 212.683,136.894 212.35,139.728 212.5,142.5C 212.855,143.522 213.522,144.189 214.5,144.5 Z"/></g>
<g><path style="opacity:1" fill="#a8a8a8" d="M 259.5,127.5 C 255.117,129.23 250.45,130.23 245.5,130.5C 249.883,128.77 254.55,127.77 259.5,127.5 Z"/></g>
<g><path style="opacity:1" fill="#a3a3a3" d="M 127.5,129.5 C 126.746,134.463 126.413,139.463 126.5,144.5C 106.167,144.5 85.8333,144.5 65.5,144.5C 85.3264,143.503 105.326,143.17 125.5,143.5C 125.334,139.486 125.501,135.486 126,131.5C 126.278,130.584 126.778,129.918 127.5,129.5 Z"/></g>
<g><path style="opacity:1" fill="#a5a5a5" d="M 132.5,133.5 C 132.5,136.833 132.5,140.167 132.5,143.5C 158.167,143.5 183.833,143.5 209.5,143.5C 209.5,143.833 209.5,144.167 209.5,144.5C 183.5,144.5 157.5,144.5 131.5,144.5C 131.185,140.629 131.518,136.962 132.5,133.5 Z"/></g>
<g><path style="opacity:1" fill="#9d9d9d" d="M 214.5,131.5 C 215.483,135.298 215.817,139.298 215.5,143.5C 237.007,143.169 258.34,143.503 279.5,144.5C 258.167,144.5 236.833,144.5 215.5,144.5C 215.167,144.5 214.833,144.5 214.5,144.5C 214.5,140.167 214.5,135.833 214.5,131.5 Z"/></g>
<g><path style="opacity:1" fill="#161616" d="M 215.5,144.5 C 236.833,144.5 258.167,144.5 279.5,144.5C 280.451,145.919 280.784,147.585 280.5,149.5C 208.492,150.164 136.826,149.497 65.5,147.5C 136.762,148.497 208.096,148.83 279.5,148.5C 279.5,147.5 279.5,146.5 279.5,145.5C 257.993,145.831 236.66,145.497 215.5,144.5 Z"/></g>
</svg>
